<svg xmlns="http://www.w3.org/2000/svg" viewBox="0 0 720 470" fill="none" role="img" aria-labelledby="title desc">
  <title id="title">Ilustração do painel financeiro de uma livraria</title>
  <desc id="desc">Uma estante de livros ao fundo e um painel com gráfico de vendas à frente.</desc>
  <defs>
    <linearGradient id="panel" x1="239" y1="116" x2="495" y2="359" gradientUnits="userSpaceOnUse">
      <stop stop-color="#fff"/>
      <stop offset="1" stop-color="#F2F2FF"/>
    </linearGradient>
    <linearGradient id="book1" x1="88" y1="245" x2="144" y2="322" gradientUnits="userSpaceOnUse">
      <stop stop-color="#FFD28C"/>
      <stop offset="1" stop-color="#FFA95E"/>
    </linearGradient>
    <linearGradient id="book2" x1="565" y1="260" x2="626" y2="340" gradientUnits="userSpaceOnUse">
      <stop stop-color="#B7E6DA"/>
      <stop offset="1" stop-color="#74C9B2"/>
    </linearGradient>
    <filter id="shadow" x="174" y="81" width="382" height="341" color-interpolation-filters="sRGB" filterUnits="userSpaceOnUse">
      <feFlood flood-opacity="0" result="BackgroundImageFix"/>
      <feColorMatrix in="SourceAlpha" type="matrix" values="0 0 0 0 0 0 0 0 0 0 0 0 0 0 0 0 0 0 127 0" result="hardAlpha"/>
      <feOffset dy="14"/>
      <feGaussianBlur stdDeviation="14"/>
      <feComposite in2="hardAlpha" operator="out"/>
      <feColorMatrix type="matrix" values="0 0 0 0 0.19 0 0 0 0 0.17 0 0 0 0 0.57 0 0 0 0.22 0"/>
      <feBlend mode="normal" in2="BackgroundImageFix" result="effect1_dropShadow"/>
      <feBlend mode="normal" in="SourceGraphic" in2="effect1_dropShadow" result="shape"/>
    </filter>
  </defs>

  <circle cx="360" cy="226" r="173" fill="#7774F2" opacity=".5"/>
  <circle cx="360" cy="226" r="135" fill="#8D8AF6" opacity=".42"/>
  <path d="M84 373h552" stroke="#D6D5FF" stroke-opacity=".54" stroke-width="2"/>
  <path d="M142 133v214M578 133v214" stroke="#D6D5FF" stroke-opacity=".34" stroke-width="2"/>

  <!-- Estante e livros -->
  <path d="M121 175h137M121 236h137M462 175h137M462 236h137" stroke="#E8E7FF" stroke-width="8" stroke-linecap="round"/>
  <rect x="131" y="133" width="18" height="38" rx="4" fill="#FFD48D"/>
  <rect x="153" y="143" width="17" height="28" rx="4" fill="#F8F7FF"/>
  <rect x="174" y="126" width="19" height="45" rx="4" fill="#B9E8DC"/>
  <rect x="197" y="138" width="17" height="33" rx="4" fill="#FFB7B0"/>
  <rect x="218" y="130" width="22" height="41" rx="4" fill="#C8C5FF"/>
  <rect x="471" y="138" width="19" height="33" rx="4" fill="#B9E8DC"/>
  <rect x="494" y="124" width="17" height="47" rx="4" fill="#FFD48D"/>
  <rect x="515" y="135" width="20" height="36" rx="4" fill="#F8F7FF"/>
  <rect x="539" y="129" width="16" height="42" rx="4" fill="#FFB7B0"/>
  <rect x="559" y="142" width="27" height="29" rx="4" fill="#C8C5FF"/>
  <rect x="133" y="194" width="19" height="42" rx="4" fill="#FFB7B0"/>
  <rect x="156" y="201" width="23" height="35" rx="4" fill="#C8C5FF"/>
  <rect x="183" y="190" width="18" height="46" rx="4" fill="#FFD48D"/>
  <rect x="205" y="198" width="17" height="38" rx="4" fill="#B9E8DC"/>
  <rect x="226" y="193" width="23" height="43" rx="4" fill="#F8F7FF"/>
  <rect x="471" y="193" width="22" height="43" rx="4" fill="#C8C5FF"/>
  <rect x="497" y="198" width="17" height="38" rx="4" fill="#FFD48D"/>
  <rect x="518" y="188" width="21" height="48" rx="4" fill="#B9E8DC"/>
  <rect x="543" y="201" width="18" height="35" rx="4" fill="#FFB7B0"/>
  <rect x="565" y="194" width="22" height="42" rx="4" fill="#F8F7FF"/>

  <!-- Pilha de livros à esquerda -->
  <path d="M91 322h90l-8 27H99l-8-27Z" fill="url(#book1)"/>
  <path d="M102 294h82l-7 25h-68l-7-25Z" fill="#F8F7FF"/>
  <path d="M91 264h84l-7 27h-70l-7-27Z" fill="#B9E8DC"/>
  <path d="M108 264v25M119 294v25M107 322v27" stroke="#625FE9" stroke-opacity=".28" stroke-width="3"/>
  <circle cx="133" cy="248" r="14" fill="#FFD48D"/>
  <path d="M133 240v16m-5-10 5-6 5 6" stroke="#fff" stroke-width="2.4" stroke-linecap="round" stroke-linejoin="round"/>

  <!-- Pilha e gráfico decorativo à direita -->
  <path d="M540 334h100l-8 25h-84l-8-25Z" fill="url(#book2)"/>
  <path d="M550 306h85l-7 25h-71l-7-25Z" fill="#F8F7FF"/>
  <path d="M544 276h94l-7 27h-80l-7-27Z" fill="#FFD48D"/>
  <path d="M559 276v25m11 5v23m-12 5v22" stroke="#625FE9" stroke-opacity=".28" stroke-width="3"/>
  <circle cx="603" cy="249" r="20" fill="#F8F7FF"/>
  <path d="M603 237v13l8 5" stroke="#625FE9" stroke-width="3" stroke-linecap="round" stroke-linejoin="round"/>

  <!-- Painel de análise -->
  <g filter="url(#shadow)">
    <rect x="216" y="104" width="288" height="259" rx="22" fill="url(#panel)"/>
    <rect x="216.8" y="104.8" width="286.4" height="257.4" rx="21.2" stroke="#fff" stroke-opacity=".8" stroke-width="1.6"/>
  </g>
  <rect x="239" y="128" width="43" height="43" rx="14" fill="#625FE9"/>
  <path d="M251 155v-14l9 7 9-7v14" stroke="#fff" stroke-width="2.5" stroke-linecap="round" stroke-linejoin="round"/>
  <rect x="293" y="137" width="103" height="9" rx="4.5" fill="#24263A" opacity=".86"/>
  <rect x="293" y="154" width="69" height="6" rx="3" fill="#9296AA" opacity=".58"/>
  <circle cx="471" cy="149" r="5" fill="#B9E8DC"/>
  <rect x="239" y="190" width="242" height="142" rx="16" fill="#fff"/>
  <path d="M260 300h201M260 269h201M260 238h201" stroke="#EEEFF6" stroke-width="1.5"/>
  <rect x="276" y="269" width="22" height="31" rx="6" fill="#C9C7FF"/>
  <rect x="311" y="250" width="22" height="50" rx="6" fill="#A9A6FB"/>
  <rect x="346" y="257" width="22" height="43" rx="6" fill="#8985F3"/>
  <rect x="381" y="230" width="22" height="70" rx="6" fill="#706CEF"/>
  <rect x="416" y="213" width="22" height="87" rx="6" fill="#625FE9"/>
  <path d="m279 255 39-20 42 7 36-32 37-14" stroke="#FFAA67" stroke-width="4" stroke-linecap="round" stroke-linejoin="round"/>
  <circle cx="433" cy="196" r="6" fill="#FFAA67" stroke="#fff" stroke-width="3"/>
  <rect x="239" y="343" width="77" height="6" rx="3" fill="#C8C9D6"/>
  <rect x="323" y="343" width="53" height="6" rx="3" fill="#E0E0E9"/>

  <path d="m347 78 5-12 5 12 12 5-12 5-5 12-5-12-12-5 12-5Z" fill="#FFF2B4"/>
  <circle cx="403" cy="79" r="4" fill="#fff" opacity=".78"/>
  <circle cx="199" cy="274" r="4" fill="#fff" opacity=".72"/>
</svg>
